<svg width="17" height="15" viewBox="0 0 17 15" fill="none" xmlns="http://www.w3.org/2000/svg">
<g clip-path="url(#clip0_2_1991)">
<path d="M9.1645 3.5C9.85635 3.6191 10.4922 3.91766 10.9906 4.35746C11.4891 4.79726 11.8274 5.35829 11.9624 5.96875M9.1645 1C10.6019 1.1409 11.9423 1.70886 12.9656 2.61063C13.9889 3.5124 14.6343 4.69438 14.7957 5.9625M14.0874 10.95V12.825C14.0882 12.9991 14.0478 13.1714 13.9688 13.3308C13.8897 13.4903 13.7738 13.6335 13.6285 13.7512C13.4831 13.8688 13.3115 13.9584 13.1246 14.0142C12.9377 14.07 12.7397 14.0907 12.5432 14.075C10.3636 13.866 8.26987 13.2088 6.43033 12.1563C4.71888 11.1967 3.26786 9.91636 2.18033 8.40625C0.983234 6.77575 0.238255 4.91937 0.00574933 2.9875C-0.0119516 2.81467 0.0113274 2.64048 0.0741038 2.47602C0.13688 2.31156 0.237779 2.16043 0.370375 2.03226C0.502972 1.9041 0.664361 1.80169 0.844268 1.73158C1.02417 1.66146 1.21866 1.62516 1.41533 1.625H3.54033C3.88409 1.62201 4.21735 1.72942 4.478 1.92721C4.73864 2.12499 4.90889 2.39965 4.957 2.7C5.04669 3.30004 5.21303 3.8892 5.45283 4.45625C5.54813 4.67995 5.56876 4.92307 5.51227 5.1568C5.45577 5.39053 5.32453 5.60507 5.13408 5.775L4.2345 6.56875C5.24285 8.13347 6.71115 9.42903 8.4845 10.3187L9.38408 9.525C9.57667 9.35696 9.81982 9.24116 10.0847 9.19131C10.3496 9.14146 10.6251 9.15966 10.8787 9.24375C11.5213 9.45534 12.189 9.60211 12.8691 9.68125C13.2132 9.72408 13.5274 9.877 13.752 10.1109C13.9767 10.3449 14.096 10.6435 14.0874 10.95Z" stroke="#D87F76" stroke-width="2" stroke-linecap="round" stroke-linejoin="round"/>
</g>
<defs>
<clipPath id="clip0_2_1991">
<rect width="17" height="15" fill="white"/>
</clipPath>
</defs>
</svg>
