<svg width="19" height="19" viewBox="0 0 19 19" fill="none" xmlns="http://www.w3.org/2000/svg">
<path d="M15.3055 13.9555L18.7195 17.3686C19.0924 17.7415 19.0921 18.3464 18.7192 18.7192C18.3464 19.0921 17.7415 19.0924 17.3686 18.7195L13.9555 15.3055C12.4344 16.525 10.5423 17.1882 8.59272 17.1854C3.84954 17.1854 0 13.3359 0 8.59272C0 3.84954 3.84954 0 8.59272 0C13.3359 0 17.1854 3.84954 17.1854 8.59272C17.1882 10.5423 16.525 12.4344 15.3055 13.9555ZM13.3903 13.2471C14.602 12.0011 15.2787 10.3308 15.2759 8.59272C15.2759 4.89976 12.2847 1.90949 8.59272 1.90949C4.89976 1.90949 1.90949 4.89976 1.90949 8.59272C1.90949 12.2847 4.89976 15.2759 8.59272 15.2759C10.3308 15.2787 12.0011 14.602 13.2471 13.3903L13.3903 13.2471Z" fill="#09121F"/>
</svg>
