<svg width="31" height="31" viewBox="0 0 31 31" fill="none" xmlns="http://www.w3.org/2000/svg">
<g clip-path="url(#clip0_2_3149)">
<path d="M29.7109 9.04102V1.29102H21.9609" stroke="#FEA600" stroke-width="2.58333" stroke-linecap="round" stroke-linejoin="round"/>
<path d="M20.6641 10.3327L29.7057 1.29102" stroke="#FEA600" stroke-width="2.58333" stroke-linecap="round" stroke-linejoin="round"/>
<path d="M25.6888 21.4866V25.3616C25.6903 25.7214 25.6166 26.0774 25.4725 26.407C25.3284 26.7366 25.117 27.0325 24.8519 27.2757C24.5868 27.5189 24.2739 27.7041 23.9331 27.8193C23.5923 27.9345 23.2313 27.9773 22.873 27.945C18.8983 27.5131 15.0804 26.1549 11.7259 23.9796C8.60501 21.9964 5.95904 19.3504 3.9759 16.2296C1.79296 12.8599 0.434465 9.02334 0.0104841 5.0308C-0.021794 4.67361 0.0206558 4.31362 0.13513 3.97373C0.249605 3.63385 0.433596 3.32153 0.67539 3.05665C0.917184 2.79177 1.21148 2.58014 1.53955 2.43523C1.86761 2.29032 2.22226 2.21531 2.5809 2.21497H6.4559C7.08275 2.2088 7.69047 2.43078 8.16576 2.83953C8.64105 3.24829 8.9515 3.81592 9.03923 4.43664C9.20279 5.67672 9.50611 6.89432 9.9434 8.06622C10.1172 8.52854 10.1548 9.03098 10.0518 9.51402C9.94876 9.99706 9.70943 10.4404 9.36215 10.7916L7.72173 12.4321C9.56049 15.6658 12.238 18.3433 15.4717 20.1821L17.1121 18.5416C17.4633 18.1944 17.9067 17.955 18.3898 17.852C18.8728 17.749 19.3752 17.7866 19.8376 17.9604C21.0095 18.3977 22.2271 18.701 23.4672 18.8646C24.0946 18.9531 24.6676 19.2691 25.0773 19.7526C25.4869 20.236 25.7045 20.8532 25.6888 21.4866Z" stroke="#FEA600" stroke-width="2.58333" stroke-linecap="round" stroke-linejoin="round"/>
</g>
<defs>
<clipPath id="clip0_2_3149">
<rect width="31" height="31" fill="white"/>
</clipPath>
</defs>
</svg>
