<svg width="16" height="16" viewBox="0 0 16 16" fill="none" xmlns="http://www.w3.org/2000/svg">
<g clip-path="url(#clip0_2_674)">
<path d="M15.3367 0.666016L11.3367 4.66602" stroke="#BC6D72" stroke-width="1.29167" stroke-linecap="round" stroke-linejoin="round"/>
<path d="M11.3367 0.666016L15.3367 4.66602" stroke="#BC6D72" stroke-width="1.29167" stroke-linecap="round" stroke-linejoin="round"/>
<path d="M14.666 11.2807V13.2807C14.6668 13.4664 14.6287 13.6502 14.5543 13.8203C14.48 13.9904 14.3709 14.1431 14.2341 14.2686C14.0972 14.3941 13.9357 14.4897 13.7598 14.5492C13.584 14.6087 13.3976 14.6308 13.2127 14.6141C11.1612 14.3911 9.19067 13.6901 7.45934 12.5674C5.84855 11.5438 4.48289 10.1782 3.45934 8.56738C2.33265 6.82819 1.6315 4.84805 1.41267 2.78738C1.39601 2.60303 1.41792 2.41722 1.477 2.2418C1.53609 2.06637 1.63105 1.90518 1.75585 1.76846C1.88064 1.63175 2.03254 1.52252 2.20186 1.44773C2.37119 1.37294 2.55423 1.33422 2.73934 1.33405H4.73934C5.06287 1.33086 5.37653 1.44543 5.62184 1.6564C5.86716 1.86737 6.02739 2.16035 6.07267 2.48072C6.15708 3.12076 6.31364 3.7492 6.53934 4.35405C6.62903 4.59267 6.64844 4.85199 6.59527 5.1013C6.5421 5.35061 6.41858 5.57946 6.23934 5.76072L5.39267 6.60738C6.34171 8.27641 7.72364 9.65835 9.39267 10.6074L10.2393 9.76072C10.4206 9.58147 10.6494 9.45795 10.8987 9.40478C11.1481 9.35161 11.4074 9.37102 11.646 9.46072C12.2509 9.68642 12.8793 9.84297 13.5193 9.92738C13.8432 9.97307 14.1389 10.1362 14.3504 10.3857C14.5618 10.6352 14.6741 10.9538 14.666 11.2807Z" stroke="#BC6D72" stroke-width="1.29167" stroke-linecap="round" stroke-linejoin="round"/>
</g>
<defs>
<clipPath id="clip0_2_674">
<rect width="15.5" height="15.5" fill="white" transform="scale(1.03226)"/>
</clipPath>
</defs>
</svg>
