<svg width="12" height="15" viewBox="0 0 12 15" fill="none" xmlns="http://www.w3.org/2000/svg">
<path d="M0 15C0 13.4845 0.602039 12.031 1.67368 10.9594C2.74531 9.88775 4.19876 9.28571 5.71429 9.28571C7.22981 9.28571 8.68326 9.88775 9.7549 10.9594C10.8265 12.031 11.4286 13.4845 11.4286 15H10C10 13.8634 9.54847 12.7733 8.74474 11.9695C7.94102 11.1658 6.85093 10.7143 5.71429 10.7143C4.57764 10.7143 3.48756 11.1658 2.68383 11.9695C1.8801 12.7733 1.42857 13.8634 1.42857 15H0ZM5.71429 8.57143C3.34643 8.57143 1.42857 6.65357 1.42857 4.28571C1.42857 1.91786 3.34643 0 5.71429 0C8.08214 0 10 1.91786 10 4.28571C10 6.65357 8.08214 8.57143 5.71429 8.57143ZM5.71429 7.14286C7.29286 7.14286 8.57143 5.86429 8.57143 4.28571C8.57143 2.70714 7.29286 1.42857 5.71429 1.42857C4.13571 1.42857 2.85714 2.70714 2.85714 4.28571C2.85714 5.86429 4.13571 7.14286 5.71429 7.14286Z" fill="#09121F"/>
</svg>
