<svg width="32" height="32" viewBox="0 0 32 32" fill="none" xmlns="http://www.w3.org/2000/svg">
<g clip-path="url(#clip0_2_3173)">
<path d="M4.3978 15L3.50577 13.2138L2.94808 11.5205L2 8.70712L2.81942 5.57379C2.7861 5.20508 2.82992 4.83347 2.94808 4.48262C3.06625 4.13177 3.25618 3.80937 3.50577 3.53595C3.75536 3.26253 4.05916 3.04407 4.3978 2.89448C4.73645 2.7449 5.10254 2.66747 5.47275 2.66712H9.47275C10.1198 2.66075 10.7471 2.88989 11.2378 3.31183C11.7284 3.73377 12.0489 4.31972 12.1394 4.96045C12.3082 6.24054 12.6213 7.49742 13.0728 8.70712C13.2521 9.18435 13.291 9.70301 13.1846 10.2016C13.0783 10.7002 12.8312 11.1579 12.4727 11.5205L10.7794 13.2138C12.6775 16.5518 15.4414 19.3157 18.7794 21.2138L20.4727 19.5205C20.8353 19.162 21.293 18.9149 21.7916 18.8086C22.2902 18.7022 22.8089 18.7411 23.2861 18.9205C24.4958 19.3719 25.7527 19.685 27.0328 19.8538C27.6804 19.9452 28.272 20.2714 28.6948 20.7704C29.1176 21.2695 29.3423 21.9066 29.3261 22.5605V26.5605C29.3276 26.9318 29.2515 27.2993 29.1028 27.6396C28.954 27.9798 28.7358 28.2852 28.4622 28.5363C28.1886 28.7873 27.8655 28.9784 27.5137 29.0974C27.162 29.2164 26.7892 29.2605 26.4194 29.2271L23.2861 30L20.4727 29.2271L18 27.6396" stroke="black" stroke-opacity="0.6" stroke-width="2.66667" stroke-linecap="round" stroke-linejoin="round"/>
<path d="M7.49902 28.4559L3.41299 30.7431C2.82352 31.073 2.11818 30.5606 2.24981 29.898L3.16227 25.305L-0.276096 22.1256C-0.772101 21.667 -0.502714 20.8378 0.168142 20.7582L4.81843 20.2067L6.78015 15.9542C7.06312 15.3408 7.93492 15.3408 8.21788 15.9542L10.1796 20.2067L14.8299 20.7582C15.5007 20.8378 15.7701 21.667 15.2741 22.1256L11.8358 25.305L12.7482 29.898C12.8799 30.5606 12.1745 31.073 11.585 30.7431L7.49902 28.4559ZM7.11237 26.8578C7.3526 26.7233 7.64543 26.7233 7.88566 26.8578L10.8612 28.5232L10.1964 25.1792C10.1427 24.9091 10.2331 24.6306 10.4352 24.4436L12.9386 22.1281L9.55252 21.7266C9.27909 21.6942 9.04215 21.5221 8.92683 21.272L7.49902 18.1761L6.07123 21.2727C5.9559 21.5228 5.71887 21.695 5.44535 21.7274L2.05948 22.1281L4.56279 24.4436C4.76491 24.6306 4.85537 24.9091 4.80168 25.1792L4.13681 28.5232L7.11237 26.8578Z" fill="#09121F" fill-opacity="0.6"/>
</g>
<defs>
<clipPath id="clip0_2_3173">
<rect width="32" height="32" fill="white"/>
</clipPath>
</defs>
</svg>
