<svg width="13" height="13" viewBox="0 0 13 13" fill="none" xmlns="http://www.w3.org/2000/svg">
<g clip-path="url(#clip0_2_664)">
<path d="M11.9173 9.16473V10.7897C11.9179 10.9406 11.887 11.0899 11.8265 11.2281C11.7661 11.3663 11.6775 11.4904 11.5663 11.5924C11.4551 11.6944 11.3239 11.772 11.181 11.8204C11.0381 11.8687 10.8867 11.8866 10.7364 11.8731C9.06963 11.6919 7.46855 11.1224 6.06184 10.2101C4.75308 9.3785 3.64349 8.2689 2.81184 6.96014C1.89642 5.54705 1.32673 3.93818 1.14893 2.26389C1.13539 2.1141 1.15319 1.96314 1.2012 1.82061C1.2492 1.67807 1.32636 1.5471 1.42776 1.43602C1.52916 1.32494 1.65257 1.23619 1.79015 1.17543C1.92772 1.11466 2.07645 1.0832 2.22684 1.08306H3.85184C4.11472 1.08047 4.36957 1.17356 4.56888 1.34497C4.7682 1.51639 4.89839 1.75443 4.93518 2.01473C5.00377 2.53476 5.13096 3.04537 5.31434 3.53681C5.38722 3.73069 5.403 3.94139 5.35979 4.14395C5.31659 4.34652 5.21623 4.53245 5.07059 4.67973L4.38268 5.36764C5.15377 6.72373 6.27659 7.84655 7.63268 8.61764L8.32059 7.92973C8.46787 7.78409 8.6538 7.68373 8.85637 7.64053C9.05893 7.59733 9.26964 7.6131 9.46351 7.68598C9.95495 7.86936 10.4656 7.99656 10.9856 8.06514C11.2487 8.10226 11.489 8.2348 11.6608 8.43754C11.8326 8.64028 11.9239 8.89908 11.9173 9.16473Z" stroke="black" stroke-width="1.08333" stroke-linecap="round" stroke-linejoin="round"/>
</g>
<defs>
<clipPath id="clip0_2_664">
<rect width="13" height="13" fill="white"/>
</clipPath>
</defs>
</svg>
