<svg width="16" height="16" viewBox="0 0 16 16" fill="none" xmlns="http://www.w3.org/2000/svg">
<g clip-path="url(#clip0_2_670)">
<path d="M15.334 4.66638V0.666382H11.334" stroke="#EDD199" stroke-width="1.33333" stroke-linecap="round" stroke-linejoin="round"/>
<path d="M10.666 5.33305L15.3327 0.666382" stroke="#EDD199" stroke-width="1.33333" stroke-linecap="round" stroke-linejoin="round"/>
<path d="M14.6669 11.2804V13.2804C14.6677 13.466 14.6297 13.6498 14.5553 13.8199C14.4809 13.99 14.3718 14.1427 14.235 14.2683C14.0982 14.3938 13.9367 14.4893 13.7608 14.5488C13.5849 14.6083 13.3985 14.6304 13.2136 14.6137C11.1622 14.3908 9.19161 13.6898 7.46028 12.567C5.8495 11.5435 4.48384 10.1778 3.46028 8.56702C2.3336 6.82782 1.63244 4.84768 1.41361 2.78702C1.39695 2.60266 1.41886 2.41686 1.47795 2.24143C1.53703 2.06601 1.63199 1.90481 1.75679 1.7681C1.88159 1.63138 2.03348 1.52216 2.20281 1.44736C2.37213 1.37257 2.55517 1.33386 2.74028 1.33368H4.74028C5.06382 1.3305 5.37748 1.44507 5.62279 1.65604C5.8681 1.86701 6.02833 2.15998 6.07361 2.48035C6.15803 3.12039 6.31458 3.74883 6.54028 4.35368C6.62998 4.5923 6.64939 4.85163 6.59622 5.10094C6.54305 5.35025 6.41952 5.57909 6.24028 5.76035L5.39361 6.60702C6.34265 8.27605 7.72458 9.65798 9.39361 10.607L10.2403 9.76035C10.4215 9.58111 10.6504 9.45758 10.8997 9.40441C11.149 9.35124 11.4083 9.37065 11.6469 9.46035C12.2518 9.68605 12.8802 9.8426 13.5203 9.92702C13.8441 9.9727 14.1399 10.1358 14.3513 10.3853C14.5627 10.6349 14.6751 10.9534 14.6669 11.2804Z" stroke="#EDD199" stroke-width="1.33333" stroke-linecap="round" stroke-linejoin="round"/>
</g>
<defs>
<clipPath id="clip0_2_670">
<rect width="16" height="16" fill="white"/>
</clipPath>
</defs>
</svg>
