<svg width="32" height="32" viewBox="0 0 32 32" fill="none" xmlns="http://www.w3.org/2000/svg">
<path d="M29.3261 22.5605V26.5605C29.3276 26.9318 29.2515 27.2993 29.1028 27.6396C28.954 27.9798 28.7358 28.2852 28.4622 28.5363C28.1886 28.7873 27.8655 28.9784 27.5137 29.0974C27.162 29.2164 26.7892 29.2605 26.4194 29.2271C22.3165 28.7813 18.3754 27.3793 14.9127 25.1338C11.6912 23.0867 8.95986 20.3554 6.91275 17.1338C4.65939 13.6554 3.25707 9.69511 2.81942 5.57379C2.7861 5.20508 2.82992 4.83347 2.94808 4.48262C3.06625 4.13177 3.25618 3.80937 3.50577 3.53595C3.75536 3.26253 4.05916 3.04407 4.3978 2.89448C4.73645 2.7449 5.10254 2.66747 5.47275 2.66712H9.47275C10.1198 2.66075 10.7471 2.88989 11.2378 3.31183C11.7284 3.73377 12.0489 4.31972 12.1394 4.96045C12.3082 6.24054 12.6213 7.49742 13.0728 8.70712C13.2521 9.18435 13.291 9.70301 13.1846 10.2016C13.0783 10.7002 12.8312 11.1579 12.4727 11.5205L10.7794 13.2138C12.6775 16.5518 15.4414 19.3157 18.7794 21.2138L20.4727 19.5205C20.8353 19.162 21.293 18.9149 21.7916 18.8086C22.2902 18.7022 22.8089 18.7411 23.2861 18.9205C24.4958 19.3719 25.7527 19.685 27.0328 19.8538C27.6804 19.9452 28.272 20.2714 28.6948 20.7704C29.1176 21.2695 29.3423 21.9066 29.3261 22.5605Z" stroke="#FEA600" stroke-width="2.66667" stroke-linecap="round" stroke-linejoin="round"/>
</svg>
