<svg width="21" height="18" viewBox="0 0 21 18" fill="none" xmlns="http://www.w3.org/2000/svg">
<path d="M21 2.08839C20.2191 2.44257 19.3869 2.67732 18.5194 2.79131C19.4119 2.24038 20.0931 1.37462 20.4133 0.331103C19.5812 0.844042 18.6624 1.20636 17.6833 1.40855C16.8932 0.538722 15.7671 0 14.5386 0C12.1551 0 10.2362 2.00019 10.2362 4.45226C10.2362 4.80507 10.2651 5.14432 10.3359 5.46728C6.75675 5.2868 3.58969 3.51322 1.46212 0.811475C1.09069 1.47775 0.872813 2.24038 0.872813 3.06135C0.872813 4.60288 1.64062 5.96936 2.78513 6.76048C2.09344 6.74691 1.41488 6.53929 0.84 6.21226C0.84 6.22583 0.84 6.24347 0.84 6.26111C0.84 8.42414 2.33231 10.2208 4.28925 10.6347C3.93881 10.7337 3.55687 10.7812 3.1605 10.7812C2.88488 10.7812 2.60662 10.7649 2.34544 10.7052C2.90325 12.4679 4.48613 13.7639 6.36825 13.8059C4.9035 14.9906 3.04369 15.7043 1.03031 15.7043C0.67725 15.7043 0.338625 15.6881 0 15.6433C1.90706 16.9148 4.16719 17.6408 6.6045 17.6408C14.5267 17.6408 18.858 10.8559 18.858 4.97469C18.858 4.77793 18.8514 4.58795 18.8423 4.39933C19.6967 3.77241 20.4146 2.98943 21 2.08839Z" fill="white"/>
</svg>
