<svg width="22" height="18" viewBox="0 0 22 18" fill="none" xmlns="http://www.w3.org/2000/svg">
<path d="M10.8646 18C4.86409 18 0 13.9707 0 9.00001C0 4.0293 4.86409 0 10.8646 0C16.8651 0 21.7292 4.0293 21.7292 9.00001C21.7292 13.9707 16.8651 18 10.8646 18ZM10.8646 16.2C13.1698 16.2 15.3806 15.4414 17.0106 14.0912C18.6406 12.7409 19.5563 10.9096 19.5563 9.00001C19.5563 7.09045 18.6406 5.2591 17.0106 3.90883C15.3806 2.55857 13.1698 1.8 10.8646 1.8C8.55943 1.8 6.34867 2.55857 4.71866 3.90883C3.08865 5.2591 2.17292 7.09045 2.17292 9.00001C2.17292 10.9096 3.08865 12.7409 4.71866 14.0912C6.34867 15.4414 8.55943 16.2 10.8646 16.2ZM9.77815 11.7H11.9511V13.5H9.77815V11.7ZM9.77815 4.5H11.9511V9.90001H9.77815V4.5Z" fill="black" fill-opacity="0.5"/>
</svg>
