<svg width="14" height="16" viewBox="0 0 14 16" fill="none" xmlns="http://www.w3.org/2000/svg">
<path d="M5.95348 9.67441V11.1628C4.76926 11.1628 3.63354 11.6332 2.79617 12.4706C1.9588 13.3079 1.48837 14.4437 1.48837 15.6279H0C0 14.0489 0.62724 12.5346 1.74373 11.4181C2.86023 10.3016 4.37452 9.67441 5.95348 9.67441ZM5.95348 8.93022C3.48651 8.93022 1.48837 6.93208 1.48837 4.46511C1.48837 1.99814 3.48651 0 5.95348 0C8.42045 0 10.4186 1.99814 10.4186 4.46511C10.4186 6.93208 8.42045 8.93022 5.95348 8.93022ZM5.95348 7.44185C7.59813 7.44185 8.93022 6.10976 8.93022 4.46511C8.93022 2.82046 7.59813 1.48837 5.95348 1.48837C4.30883 1.48837 2.97674 2.82046 2.97674 4.46511C2.97674 6.10976 4.30883 7.44185 5.95348 7.44185ZM7.88464 13.2554C7.79028 12.8583 7.79028 12.4447 7.88464 12.0476L7.14641 11.6212L7.89059 10.3323L8.62883 10.7587C8.92513 10.478 9.28331 10.271 9.67441 10.1544V9.30231H11.1628V10.1544C11.5587 10.272 11.9159 10.4818 12.2084 10.7587L12.9466 10.3323L13.6908 11.6212L12.9525 12.0476C13.0468 12.4444 13.0468 12.8578 12.9525 13.2547L13.6908 13.6811L12.9466 14.97L12.2084 14.5436C11.912 14.8243 11.5539 15.0313 11.1628 15.1479V16H9.67441V15.1479C9.28331 15.0313 8.92513 14.8243 8.62883 14.5436L7.89059 14.97L7.14641 13.6811L7.88464 13.2554ZM10.4186 13.7674C10.7146 13.7674 10.9986 13.6498 11.2079 13.4405C11.4173 13.2311 11.5349 12.9472 11.5349 12.6511C11.5349 12.3551 11.4173 12.0712 11.2079 11.8618C10.9986 11.6525 10.7146 11.5349 10.4186 11.5349C10.1225 11.5349 9.83861 11.6525 9.62926 11.8618C9.41992 12.0712 9.30231 12.3551 9.30231 12.6511C9.30231 12.9472 9.41992 13.2311 9.62926 13.4405C9.83861 13.6498 10.1225 13.7674 10.4186 13.7674Z" fill="#09121F" fill-opacity="0.6"/>
</svg>
