<svg width="25" height="19" viewBox="0 0 25 19" fill="none" xmlns="http://www.w3.org/2000/svg">
<path d="M3.57176 14.8806H2.97654C1.66161 14.8806 0.595643 13.8146 0.595643 12.4997V2.9761C0.595643 1.66117 1.66161 0.595205 2.97654 0.595205H19.0476C20.3625 0.595205 21.4285 1.66117 21.4285 2.9761V2.9761V4.16655M3.57176 14.8806V7.14266C3.57176 5.82773 4.63772 4.76177 5.95265 4.76177H22.0237C23.3386 4.76177 24.4046 5.82773 24.4046 7.14266V17.0446C24.4046 17.9006 23.4506 18.4111 22.7383 17.9363V17.9363C22.6591 17.8835 22.5731 17.8414 22.4828 17.8113L21.1998 17.3836C20.957 17.3027 20.7028 17.2615 20.4469 17.2615H5.95266C4.63772 17.2615 3.57176 16.1955 3.57176 14.8806V14.8806Z" stroke="#78C4CD" stroke-width="1.16129"/>
</svg>
