<svg width="28" height="27" viewBox="0 0 28 27" fill="none" xmlns="http://www.w3.org/2000/svg">
<g clip-path="url(#clip0_2_1040)">
<path d="M20.4206 0H7.57933C3.40002 0 0 3.27859 0 7.30864V19.6915C0 23.7214 3.40002 27 7.57933 27H20.4208C24.5999 27 27.9999 23.7214 27.9999 19.6915V7.30864C27.9999 3.27859 24.5999 0 20.4206 0V0ZM14 20.8826C9.77836 20.8826 6.34395 17.5708 6.34395 13.5C6.34395 9.42914 9.77836 6.11738 14 6.11738C18.2216 6.11738 21.656 9.42914 21.656 13.5C21.656 17.5708 18.2216 20.8826 14 20.8826ZM21.8391 7.85844C20.5915 7.85844 19.5768 6.87997 19.5768 5.67697C19.5768 4.47397 20.5915 3.49529 21.8391 3.49529C23.0866 3.49529 24.1015 4.47397 24.1015 5.67697C24.1015 6.87997 23.0866 7.85844 21.8391 7.85844Z" fill="white"/>
<path d="M13.9999 7.70087C10.6836 7.70087 7.98535 10.3026 7.98535 13.5006C7.98535 16.6984 10.6836 19.3003 13.9999 19.3003C17.3164 19.3003 20.0144 16.6984 20.0144 13.5006C20.0144 10.3026 17.3164 7.70087 13.9999 7.70087Z" fill="white"/>
<path d="M21.8356 5.0788C21.4934 5.0788 21.2148 5.34741 21.2148 5.67741C21.2148 6.00741 21.4934 6.27603 21.8356 6.27603C22.1781 6.27603 22.4566 6.00762 22.4566 5.67741C22.4566 5.34721 22.1781 5.0788 21.8356 5.0788Z" fill="white"/>
</g>
<defs>
<clipPath id="clip0_2_1040">
<rect width="28" height="27" fill="white"/>
</clipPath>
</defs>
</svg>
