<svg width="33" height="33" viewBox="0 0 33 33" fill="none" xmlns="http://www.w3.org/2000/svg">
<g clip-path="url(#clip0_2_3157)">
<path d="M31.6289 1.37402L23.3789 9.62402" stroke="#E7B3A0" stroke-width="2.75" stroke-linecap="round" stroke-linejoin="round"/>
<path d="M23.3789 1.37402L31.6289 9.62402" stroke="#E7B3A0" stroke-width="2.75" stroke-linecap="round" stroke-linejoin="round"/>
<path d="M30.2563 23.2661V27.3911C30.2579 27.774 30.1794 28.1531 30.026 28.504C29.8726 28.8548 29.6476 29.1698 29.3654 29.4287C29.0832 29.6876 28.7501 29.8846 28.3873 30.0073C28.0246 30.13 27.6402 30.1756 27.2588 30.1411C23.0277 29.6814 18.9634 28.2356 15.3926 25.9199C12.0703 23.8088 9.25365 20.9921 7.14257 17.6699C4.81879 14.0828 3.37265 9.99873 2.92132 5.74861C2.88696 5.36838 2.93214 4.98516 3.054 4.62334C3.17586 4.26153 3.37173 3.92906 3.62912 3.64709C3.88651 3.36512 4.1998 3.13984 4.54903 2.98558C4.89826 2.83132 5.27579 2.75147 5.65757 2.75111H9.78257C10.4499 2.74454 11.0968 2.98084 11.6027 3.41597C12.1087 3.85109 12.4392 4.45535 12.5326 5.11611C12.7067 6.4362 13.0296 7.73236 13.4951 8.97986C13.6801 9.47201 13.7201 10.0069 13.6104 10.5211C13.5008 11.0353 13.246 11.5073 12.8763 11.8811L11.1301 13.6274C13.0875 17.0697 15.9377 19.92 19.3801 21.8774L21.1263 20.1311C21.5002 19.7614 21.9722 19.5067 22.4864 19.397C23.0006 19.2873 23.5354 19.3274 24.0276 19.5124C25.2751 19.9779 26.5712 20.3008 27.8913 20.4749C28.5592 20.5691 29.1692 20.9055 29.6053 21.4202C30.0414 21.9348 30.273 22.5918 30.2563 23.2661Z" stroke="#E7B3A0" stroke-width="2.75" stroke-linecap="round" stroke-linejoin="round"/>
</g>
<defs>
<clipPath id="clip0_2_3157">
<rect width="33" height="33" fill="white"/>
</clipPath>
</defs>
</svg>
