<svg width="21" height="21" viewBox="0 0 21 21" fill="none" xmlns="http://www.w3.org/2000/svg">
<path d="M19.95 18.9H11.55V3.15C11.55 2.31457 11.8819 1.51335 12.4726 0.922615C13.0634 0.331875 13.8646 0 14.7 0H19.95C20.2285 0 20.4956 0.110625 20.6925 0.307538C20.8894 0.504452 21 0.771523 21 1.05V17.85C21 18.1285 20.8894 18.3956 20.6925 18.5925C20.4956 18.7894 20.2285 18.9 19.95 18.9ZM9.45001 18.9H1.05C0.771523 18.9 0.504452 18.7894 0.307538 18.5925C0.110625 18.3956 0 18.1285 0 17.85V1.05C0 0.771523 0.110625 0.504452 0.307538 0.307538C0.504452 0.110625 0.771523 0 1.05 0H6.30001C7.13544 0 7.93666 0.331875 8.5274 0.922615C9.11814 1.51335 9.45001 2.31457 9.45001 3.15V18.9ZM9.45001 18.9H11.55V21H9.45001V18.9Z" fill="#09121F"/>
</svg>
