<svg width="26" height="24" viewBox="0 0 26 24" fill="none" xmlns="http://www.w3.org/2000/svg">
<path d="M4.21217 2.58627C5.50875 1.42482 7.03166 0.544268 8.6851 0C9.15787 0.592295 9.75807 1.07041 10.4411 1.39879C11.1241 1.72717 11.8723 1.89738 12.6302 1.89676C13.388 1.89738 14.1362 1.72717 14.8193 1.39879C15.5023 1.07041 16.1025 0.592295 16.5752 0C18.2287 0.544268 19.7516 1.42482 21.0482 2.58627C20.7722 3.29149 20.6587 4.0498 20.716 4.80491C20.7733 5.56002 20.9999 6.29253 21.379 6.94806C21.7574 7.60485 22.2789 8.16789 22.9048 8.59532C23.5308 9.02275 24.245 9.30357 24.9945 9.41689C25.3488 11.1203 25.3488 12.8784 24.9945 14.5818C23.5296 14.8066 22.1784 15.6679 21.379 17.0507C20.9997 17.7064 20.773 18.4391 20.7157 19.1944C20.6584 19.9498 20.772 20.7083 21.0482 21.4137C19.7515 22.5747 18.2286 23.4548 16.5752 23.9987C16.1023 23.4067 15.5021 22.9288 14.8191 22.6006C14.1361 22.2725 13.3879 22.1025 12.6302 22.1032C11.8723 22.1026 11.1241 22.2728 10.4411 22.6012C9.75807 22.9296 9.15787 23.4077 8.6851 24C7.03177 23.4561 5.50887 22.576 4.21217 21.415C4.48829 20.7096 4.60193 19.951 4.54465 19.1957C4.48737 18.4404 4.26064 17.7076 3.88131 17.0519C3.50283 16.3954 2.98123 15.8326 2.35529 15.4054C1.72935 14.9782 1.01517 14.6976 0.265843 14.5844C-0.0886142 12.8805 -0.0886142 11.122 0.265843 9.41815C1.01529 9.30483 1.72954 9.02401 2.35549 8.59658C2.98144 8.16915 3.50297 7.60611 3.88131 6.94933C4.26045 6.29379 4.48707 5.56128 4.54435 4.80617C4.60162 4.05107 4.48809 3.29275 4.21217 2.58753V2.58627ZM14.5244 15.2802C14.9587 15.0332 15.3399 14.7028 15.646 14.308C15.9522 13.9131 16.1771 13.4616 16.3081 12.9794C16.439 12.4972 16.4732 11.9939 16.4088 11.4985C16.3444 11.003 16.1826 10.5252 15.9328 10.0925C15.683 9.65984 15.3501 9.28084 14.9532 8.97735C14.5563 8.67386 14.1033 8.45187 13.6203 8.32417C13.1372 8.19646 12.6337 8.16557 12.1387 8.23325C11.6437 8.30093 11.1669 8.46586 10.7359 8.71855C9.87289 9.2245 9.245 10.0513 8.9893 11.0185C8.73359 11.9856 8.87082 13.0147 9.37103 13.8811C9.87125 14.7475 10.6938 15.3808 11.6593 15.6429C12.6248 15.905 13.6547 15.7746 14.5244 15.2802Z" fill="#09121F"/>
</svg>
