<svg width="28" height="28" viewBox="0 0 28 28" fill="none" xmlns="http://www.w3.org/2000/svg">
<path d="M14 28C6.2678 28 0 21.7322 0 14C0 6.2678 6.2678 0 14 0C21.7322 0 28 6.2678 28 14C28 21.7322 21.7322 28 14 28ZM14 25.2C16.9704 25.2 19.8192 24.02 21.9196 21.9196C24.02 19.8192 25.2 16.9704 25.2 14C25.2 11.0296 24.02 8.18081 21.9196 6.0804C19.8192 3.98 16.9704 2.8 14 2.8C11.0296 2.8 8.18081 3.98 6.0804 6.0804C3.98 8.18081 2.8 11.0296 2.8 14C2.8 16.9704 3.98 19.8192 6.0804 21.9196C8.18081 24.02 11.0296 25.2 14 25.2ZM12.6 18.2H15.4V21H12.6V18.2ZM15.4 15.897V16.8H12.6V14.7C12.6 14.3287 12.7475 13.9726 13.0101 13.7101C13.2726 13.4475 13.6287 13.3 14 13.3C14.3977 13.3 14.7872 13.187 15.1233 12.9743C15.4593 12.7615 15.728 12.4577 15.8981 12.0982C16.0682 11.7387 16.1327 11.3383 16.0842 10.9436C16.0356 10.5488 15.8759 10.176 15.6238 9.86848C15.3716 9.56093 15.0373 9.33132 14.6597 9.20636C14.2821 9.08139 13.8769 9.06621 13.491 9.16259C13.1051 9.25896 12.7546 9.46292 12.4801 9.75074C12.2056 10.0386 12.0186 10.3984 11.9406 10.7884L9.1938 10.2382C9.36408 9.38712 9.75731 8.59652 10.3333 7.94722C10.9093 7.29792 11.6473 6.81321 12.472 6.54265C13.2967 6.27208 14.1785 6.22536 15.0272 6.40726C15.8758 6.58916 16.661 6.99316 17.3023 7.57795C17.9437 8.16275 18.4183 8.90737 18.6776 9.73569C18.9368 10.564 18.9715 11.4463 18.778 12.2924C18.5845 13.1385 18.1698 13.9181 17.5763 14.5514C16.9828 15.1847 16.2318 15.6491 15.4 15.897Z" fill="#09121F"/>
</svg>
