<svg width="29" height="29" viewBox="0 0 29 29" fill="none" xmlns="http://www.w3.org/2000/svg">
<path d="M14.4997 -3.90446e-06C22.508 -3.90446e-06 28.9997 6.49165 28.9997 14.5C28.9997 22.5083 22.508 29 14.4997 29C6.49132 29 -0.000331879 22.5083 -0.000331879 14.5C-0.000331879 6.49165 6.49132 -3.90446e-06 14.4997 -3.90446e-06ZM14.4997 2.9C11.4232 2.9 8.47265 4.12213 6.29723 6.29756C4.12181 8.47298 2.89967 11.4235 2.89967 14.5C2.89967 17.5765 4.12181 20.527 6.29723 22.7024C8.47265 24.8779 11.4232 26.1 14.4997 26.1C17.5762 26.1 20.5267 24.8779 22.7021 22.7024C24.8775 20.527 26.0997 17.5765 26.0997 14.5C26.0997 11.4235 24.8775 8.47298 22.7021 6.29756C20.5267 4.12213 17.5762 2.9 14.4997 2.9ZM15.9497 10.15L13.0497 10.15V7.25L15.9497 7.25V10.15ZM15.9497 21.75H13.0497L13.0497 13.05H15.9497L15.9497 21.75Z" fill="#09121F"/>
</svg>
