<svg width="15" height="15" viewBox="0 0 15 15" fill="none" xmlns="http://www.w3.org/2000/svg">
<g clip-path="url(#clip0_2_1849)">
<path d="M13.7523 10.5757V12.4507C13.753 12.6247 13.7174 12.797 13.6477 12.9565C13.5779 13.116 13.4757 13.2592 13.3474 13.3768C13.2191 13.4945 13.0677 13.5841 12.9028 13.6399C12.7379 13.6956 12.5632 13.7163 12.3898 13.7007C10.4666 13.4917 8.61921 12.8345 6.99609 11.7819C5.48598 10.8223 4.20567 9.54203 3.24609 8.03192C2.18982 6.40142 1.53249 4.54504 1.32734 2.61317C1.31172 2.44034 1.33226 2.26615 1.38765 2.10169C1.44304 1.93723 1.53207 1.7861 1.64907 1.65793C1.76606 1.52977 1.90847 1.42736 2.06721 1.35725C2.22595 1.28713 2.39755 1.25083 2.57109 1.25067H4.44609C4.74941 1.24769 5.04346 1.3551 5.27344 1.55288C5.50342 1.75066 5.65364 2.02533 5.69609 2.32567C5.77523 2.92571 5.92199 3.51488 6.13359 4.08192C6.21768 4.30562 6.23588 4.54874 6.18603 4.78247C6.13618 5.0162 6.02038 5.23074 5.85234 5.40067L5.05859 6.19442C5.94831 7.75914 7.24387 9.0547 8.80859 9.94442L9.60234 9.15067C9.77227 8.98263 9.98681 8.86683 10.2205 8.81698C10.4543 8.76713 10.6974 8.78533 10.9211 8.86942C11.4881 9.08101 12.0773 9.22778 12.6773 9.30692C12.9809 9.34975 13.2582 9.50267 13.4564 9.73661C13.6546 9.97054 13.7599 10.2692 13.7523 10.5757Z" stroke="#E7B3A0" stroke-width="1.25" stroke-linecap="round" stroke-linejoin="round"/>
<path d="M10 1.5V4.58579C10 5.36683 10.6332 6 11.4142 6V6C11.7893 6 12.149 6.149 12.4142 6.41421L13.5 7.5M10 1.5L8.5 2.5M10 1.5L11 2.5" stroke="#E7B3A0"/>
</g>
<defs>
<clipPath id="clip0_2_1849">
<rect width="15" height="15" fill="white"/>
</clipPath>
</defs>
</svg>
