<svg width="17" height="17" viewBox="0 0 17 17" fill="none" xmlns="http://www.w3.org/2000/svg">
<g clip-path="url(#clip0_2_1994)">
<path d="M16.292 4.95831V0.708313H12.042" stroke="white" stroke-width="1.41667" stroke-linecap="round" stroke-linejoin="round"/>
<path d="M11.333 5.66665L16.2913 0.708313" stroke="white" stroke-width="1.41667" stroke-linecap="round" stroke-linejoin="round"/>
<path d="M15.5845 11.9851V14.1101C15.5853 14.3074 15.5449 14.5026 15.4658 14.6834C15.3868 14.8641 15.2709 15.0264 15.1255 15.1597C14.9802 15.2931 14.8086 15.3946 14.6217 15.4578C14.4348 15.521 14.2368 15.5445 14.0403 15.5268C11.8607 15.2899 9.76694 14.5451 7.9274 13.3522C6.21595 12.2646 4.76493 10.8136 3.6774 9.10217C2.4803 7.25428 1.73533 5.15038 1.50282 2.96092C1.48512 2.76504 1.5084 2.56763 1.57117 2.38124C1.63395 2.19485 1.73485 2.02358 1.86745 1.87832C2.00004 1.73306 2.16143 1.61701 2.34134 1.53754C2.52125 1.45808 2.71573 1.41694 2.9124 1.41676H5.0374C5.38116 1.41337 5.71442 1.5351 5.97507 1.75926C6.23571 1.98341 6.40596 2.2947 6.45407 2.63509C6.54376 3.31514 6.7101 3.98285 6.9499 4.62551C7.0452 4.87903 7.06583 5.15457 7.00934 5.41946C6.95284 5.68435 6.8216 5.9275 6.63115 6.12009L5.73157 7.01967C6.73992 8.79302 8.20822 10.2613 9.98157 11.2697L10.8812 10.3701C11.0737 10.1796 11.3169 10.0484 11.5818 9.99191C11.8467 9.93541 12.1222 9.95604 12.3757 10.0513C13.0184 10.2911 13.6861 10.4575 14.3662 10.5472C14.7102 10.5957 15.0245 10.769 15.2491 11.0341C15.4737 11.2993 15.5931 11.6377 15.5845 11.9851Z" stroke="white" stroke-width="1.41667" stroke-linecap="round" stroke-linejoin="round"/>
</g>
<defs>
<clipPath id="clip0_2_1994">
<rect width="17" height="17" fill="white"/>
</clipPath>
</defs>
</svg>
