<svg width="16" height="16" viewBox="0 0 16 16" fill="none" xmlns="http://www.w3.org/2000/svg">
<path d="M14.665 11.2807V13.2807C14.6657 13.4664 14.6277 13.6502 14.5533 13.8203C14.479 13.9904 14.3699 14.1431 14.233 14.2686C14.0962 14.3941 13.9347 14.4897 13.7588 14.5492C13.5829 14.6087 13.3966 14.6308 13.2117 14.6141C11.1602 14.3911 9.18966 13.6901 7.45833 12.5674C5.84755 11.5438 4.48189 10.1782 3.45833 8.56738C2.33165 6.82819 1.63049 4.84805 1.41166 2.78738C1.395 2.60303 1.41691 2.41722 1.47599 2.2418C1.53508 2.06637 1.63004 1.90518 1.75484 1.76846C1.87964 1.63175 2.03153 1.52252 2.20086 1.44773C2.37018 1.37294 2.55322 1.33422 2.73833 1.33405H4.73833C5.06187 1.33086 5.37552 1.44543 5.62084 1.6564C5.86615 1.86737 6.02638 2.16035 6.07166 2.48072C6.15608 3.12076 6.31263 3.7492 6.53833 4.35405C6.62802 4.59267 6.64744 4.85199 6.59427 5.1013C6.54109 5.35061 6.41757 5.57946 6.23833 5.76072L5.39166 6.60738C6.3407 8.27641 7.72263 9.65835 9.39166 10.6074L10.2383 9.76072C10.4196 9.58147 10.6484 9.45795 10.8977 9.40478C11.1471 9.35161 11.4064 9.37102 11.645 9.46072C12.2498 9.68642 12.8783 9.84297 13.5183 9.92738C13.8422 9.97307 14.1379 10.1362 14.3493 10.3857C14.5608 10.6352 14.6731 10.9538 14.665 11.2807Z" fill="#BC6D72" stroke="#BC6D72" stroke-width="1.29167" stroke-linecap="round" stroke-linejoin="round"/>
<mask id="path-2-inside-1_2_1782" fill="white">
<path d="M14.4516 3.09677C14.4516 4.23697 13.5273 5.16129 12.3871 5.16129C11.2469 5.16129 10.3226 4.23697 10.3226 3.09677C10.3226 1.95657 11.2469 1.03226 12.3871 1.03226C13.5273 1.03226 14.4516 1.95657 14.4516 3.09677ZM10.6042 3.09677C10.6042 4.08145 11.4024 4.87968 12.3871 4.87968C13.3718 4.87968 14.17 4.08145 14.17 3.09677C14.17 2.1121 13.3718 1.31387 12.3871 1.31387C11.4024 1.31387 10.6042 2.1121 10.6042 3.09677Z"/>
</mask>
<path d="M14.4516 3.09677C14.4516 4.23697 13.5273 5.16129 12.3871 5.16129C11.2469 5.16129 10.3226 4.23697 10.3226 3.09677C10.3226 1.95657 11.2469 1.03226 12.3871 1.03226C13.5273 1.03226 14.4516 1.95657 14.4516 3.09677ZM10.6042 3.09677C10.6042 4.08145 11.4024 4.87968 12.3871 4.87968C13.3718 4.87968 14.17 4.08145 14.17 3.09677C14.17 2.1121 13.3718 1.31387 12.3871 1.31387C11.4024 1.31387 10.6042 2.1121 10.6042 3.09677Z" fill="#BC6D72" stroke="#BC6D72" stroke-width="2" mask="url(#path-2-inside-1_2_1782)"/>
<path d="M11.3548 1.54839L13.4194 4.64516" stroke="#BC6D72" stroke-opacity="0.8" stroke-width="0.5"/>
</svg>
