<svg width="13" height="15" viewBox="0 0 13 15" fill="none" xmlns="http://www.w3.org/2000/svg">
<g clip-path="url(#clip0_2_666)">
<path d="M8.66602 1.2193V4.87555H11.916" stroke="#CADE8E" stroke-width="1.625" stroke-linecap="round" stroke-linejoin="round"/>
<path d="M12.4577 0.60907L8.66602 4.87469" stroke="#CADE8E" stroke-width="1.625" stroke-linecap="round" stroke-linejoin="round"/>
<path d="M11.8567 10.3112V12.1394C11.8573 12.3091 11.8264 12.4771 11.766 12.6326C11.7056 12.7881 11.6169 12.9276 11.5058 13.0424C11.3946 13.1571 11.2634 13.2444 11.1205 13.2988C10.9775 13.3532 10.8261 13.3734 10.6759 13.3581C9.00908 13.1544 7.40801 12.5136 6.0013 11.4873C4.69254 10.5517 3.58294 9.30343 2.7513 7.83108C1.83587 6.24134 1.26618 4.43137 1.08838 2.5478C1.07484 2.37928 1.09265 2.20945 1.14065 2.0491C1.18866 1.88875 1.26582 1.7414 1.36721 1.61644C1.46861 1.49148 1.59203 1.39163 1.7296 1.32327C1.86718 1.25491 2.0159 1.21952 2.1663 1.21936H3.7913C4.05417 1.21645 4.30902 1.32117 4.50834 1.51401C4.70765 1.70685 4.83784 1.97465 4.87463 2.26748C4.94322 2.85252 5.07042 3.42696 5.2538 3.97983C5.32668 4.19794 5.34245 4.43498 5.29925 4.66286C5.25605 4.89075 5.15568 5.09993 5.01005 5.26561L4.32213 6.03951C5.09322 7.56511 6.21604 8.82829 7.57213 9.69576L8.26005 8.92186C8.40732 8.75802 8.59326 8.64511 8.79582 8.59651C8.99839 8.54791 9.20909 8.56565 9.40297 8.64764C9.8944 8.85394 10.405 8.99704 10.925 9.0742C11.1882 9.11596 11.4285 9.26506 11.6003 9.49314C11.772 9.72123 11.8633 10.0124 11.8567 10.3112Z" stroke="#CADE8E" stroke-width="1.625" stroke-linecap="round" stroke-linejoin="round"/>
</g>
<defs>
<clipPath id="clip0_2_666">
<rect width="13" height="14.625" fill="white"/>
</clipPath>
</defs>
</svg>
