<svg width="28" height="26" viewBox="0 0 28 26" fill="none" xmlns="http://www.w3.org/2000/svg">
<path d="M13.6001 21.9521L6.68001 25.8258C5.68167 26.3846 4.4871 25.5167 4.71004 24.3945L6.25538 16.6158L0.432131 11.2312C-0.407907 10.4544 0.0483293 9.05006 1.1845 8.91531L9.06028 7.98125L12.3827 0.779143C12.8619 -0.259715 14.3384 -0.259714 14.8176 0.779144L18.14 7.98125L26.0158 8.91531C27.152 9.05006 27.6082 10.4544 26.7682 11.2312L20.9449 16.6158L22.4902 24.3945C22.7132 25.5167 21.5186 26.3846 20.5203 25.8258L13.6001 21.9521ZM12.9453 19.2456C13.3522 19.0179 13.8481 19.0179 14.255 19.2456L19.2944 22.0661L18.1684 16.4027C18.0774 15.9453 18.2307 15.4736 18.573 15.1569L22.8126 11.2353L17.078 10.5554C16.6149 10.5005 16.2136 10.2089 16.0183 9.78548L13.6001 4.54216L11.182 9.78656C10.9867 10.2102 10.5853 10.5018 10.122 10.5566L4.38768 11.2353L8.62731 15.1569C8.96962 15.4736 9.12284 15.9453 9.03191 16.4027L7.90587 22.0661L12.9453 19.2456Z" fill="#09121F"/>
</svg>
