<svg width="16" height="16" viewBox="0 0 16 16" fill="none" xmlns="http://www.w3.org/2000/svg">
<g clip-path="url(#clip0_2_1769)">
<path d="M15.335 0.666382L11.335 4.66638" stroke="#E7B3A0" stroke-width="1.33333" stroke-linecap="round" stroke-linejoin="round"/>
<path d="M11.335 0.666382L15.335 4.66638" stroke="#E7B3A0" stroke-width="1.33333" stroke-linecap="round" stroke-linejoin="round"/>
<path d="M14.6709 11.2804V13.2804C14.6716 13.466 14.6336 13.6498 14.5592 13.8199C14.4848 13.99 14.3757 14.1427 14.2389 14.2683C14.1021 14.3938 13.9406 14.4893 13.7647 14.5488C13.5888 14.6083 13.4024 14.6304 13.2175 14.6137C11.1661 14.3908 9.19552 13.6898 7.46419 12.567C5.85341 11.5435 4.48774 10.1778 3.46419 8.56702C2.33751 6.82782 1.63635 4.84768 1.41752 2.78702C1.40086 2.60266 1.42277 2.41686 1.48185 2.24143C1.54094 2.06601 1.6359 1.90481 1.7607 1.7681C1.88549 1.63138 2.03739 1.52216 2.20671 1.44736C2.37604 1.37257 2.55908 1.33386 2.74419 1.33368H4.74419C5.06772 1.3305 5.38138 1.44507 5.6267 1.65604C5.87201 1.86701 6.03224 2.15998 6.07752 2.48035C6.16194 3.12039 6.31849 3.74883 6.54419 4.35368C6.63388 4.5923 6.6533 4.85163 6.60013 5.10094C6.54695 5.35025 6.42343 5.57909 6.24419 5.76035L5.39752 6.60702C6.34656 8.27605 7.72849 9.65798 9.39752 10.607L10.2442 9.76035C10.4254 9.58111 10.6543 9.45758 10.9036 9.40441C11.1529 9.35124 11.4122 9.37065 11.6509 9.46035C12.2557 9.68605 12.8841 9.8426 13.5242 9.92702C13.848 9.9727 14.1438 10.1358 14.3552 10.3853C14.5666 10.6349 14.679 10.9534 14.6709 11.2804Z" stroke="#E7B3A0" stroke-width="1.33333" stroke-linecap="round" stroke-linejoin="round"/>
</g>
<defs>
<clipPath id="clip0_2_1769">
<rect width="16" height="16" fill="white"/>
</clipPath>
</defs>
</svg>
