<svg width="14" height="14" viewBox="0 0 14 14" fill="none" xmlns="http://www.w3.org/2000/svg">
<g clip-path="url(#clip0_2_1334)">
<path d="M13.417 4.08331V0.583313H9.91699" stroke="#FEA600" stroke-width="1.16667" stroke-linecap="round" stroke-linejoin="round"/>
<path d="M9.33301 4.66665L13.4163 0.583313" stroke="#FEA600" stroke-width="1.16667" stroke-linecap="round" stroke-linejoin="round"/>
<path d="M12.8319 9.87008V11.6201C12.8325 11.7825 12.7993 11.9433 12.7342 12.0922C12.6691 12.241 12.5736 12.3747 12.4539 12.4845C12.3342 12.5943 12.1929 12.6779 12.039 12.73C11.8851 12.782 11.722 12.8014 11.5602 12.7867C9.76519 12.5917 8.04095 11.9783 6.52604 10.9959C5.1166 10.1003 3.92165 8.90534 3.02604 7.49591C2.04019 5.97411 1.42668 4.24149 1.2352 2.43841C1.22063 2.2771 1.2398 2.11452 1.2915 1.96102C1.34319 1.80753 1.42629 1.66648 1.53548 1.54686C1.64468 1.42723 1.77759 1.33166 1.92575 1.26621C2.07391 1.20077 2.23407 1.1669 2.39604 1.16674H4.14604C4.42913 1.16396 4.70358 1.26421 4.91823 1.4488C5.13288 1.6334 5.27308 1.88975 5.3127 2.17008C5.38657 2.73012 5.52355 3.28 5.72104 3.80924C5.79952 4.01803 5.81651 4.24494 5.76998 4.46309C5.72346 4.68124 5.61537 4.88147 5.45854 5.04008L4.7177 5.78091C5.54811 7.24131 6.7573 8.4505 8.2177 9.28091L8.95854 8.54008C9.11714 8.38324 9.31738 8.27516 9.53552 8.22863C9.75367 8.18211 9.98058 8.19909 10.1894 8.27758C10.7186 8.47506 11.2685 8.61205 11.8285 8.68591C12.1119 8.72589 12.3707 8.86861 12.5557 9.08695C12.7407 9.30528 12.839 9.584 12.8319 9.87008Z" fill="#FEA600" stroke="#FEA600" stroke-width="1.16667" stroke-linecap="round" stroke-linejoin="round"/>
</g>
<defs>
<clipPath id="clip0_2_1334">
<rect width="14" height="14" fill="white"/>
</clipPath>
</defs>
</svg>
