<svg width="49" height="12" viewBox="0 0 49 12" fill="none" xmlns="http://www.w3.org/2000/svg">
<path d="M1.01329 9.02917H0V0.379985H1.01329V9.02917Z" fill="black"/>
<path d="M8.2873 9.02917H7.29813V5.50677C7.29813 4.19592 6.81963 3.5405 5.86263 3.5405C5.36805 3.5405 4.9579 3.72747 4.6322 4.10143C4.31052 4.47136 4.14968 4.93981 4.14968 5.50677V9.02917H3.16051V2.8529H4.14968V3.87826H4.17381C4.64024 3.09819 5.31577 2.70815 6.20039 2.70815C6.87592 2.70815 7.39262 2.92729 7.75049 3.36558C8.10836 3.79985 8.2873 4.42914 8.2873 5.25345V9.02917Z" fill="black"/>
<path d="M14.3671 8.74569C13.8926 9.03118 13.3296 9.17393 12.6782 9.17393C11.7976 9.17393 11.0859 8.88844 10.5431 8.31745C10.0043 7.74245 9.73486 6.99856 9.73486 6.08579C9.73486 5.06848 10.0264 4.25222 10.6094 3.637C11.1925 3.01777 11.9705 2.70815 12.9436 2.70815C13.4865 2.70815 13.965 2.80867 14.3791 3.00972V4.02302C13.9207 3.70134 13.4302 3.5405 12.9074 3.5405C12.2761 3.5405 11.7574 3.76768 11.3513 4.22206C10.9492 4.67241 10.7482 5.26551 10.7482 6.00135C10.7482 6.72514 10.9371 7.29612 11.3151 7.7143C11.6971 8.13249 12.2078 8.34158 12.8471 8.34158C13.3859 8.34158 13.8926 8.16265 14.3671 7.80478V8.74569Z" fill="black"/>
<path d="M18.4444 9.17393C17.5316 9.17393 16.8018 8.88643 16.2549 8.31142C15.7121 7.7324 15.4407 6.9664 15.4407 6.01342C15.4407 4.976 15.7241 4.16576 16.2911 3.58272C16.8581 2.99967 17.6241 2.70815 18.5891 2.70815C19.5099 2.70815 20.2277 2.99163 20.7424 3.55859C21.2611 4.12555 21.5204 4.91166 21.5204 5.91691C21.5204 6.90206 21.241 7.69219 20.6821 8.2873C20.1272 8.87838 19.3813 9.17393 18.4444 9.17393ZM18.5167 3.5405C17.8814 3.5405 17.3788 3.75763 17.0089 4.1919C16.6389 4.62215 16.454 5.21726 16.454 5.97723C16.454 6.70905 16.6409 7.28607 17.0149 7.70827C17.3888 8.13048 17.8895 8.34158 18.5167 8.34158C19.1561 8.34158 19.6466 8.1345 19.9884 7.72033C20.3342 7.30617 20.5071 6.71709 20.5071 5.9531C20.5071 5.18107 20.3342 4.58596 19.9884 4.16777C19.6466 3.74959 19.1561 3.5405 18.5167 3.5405Z" fill="black"/>
<path d="M31.8705 9.02917H30.8813V5.48264C30.8813 4.79907 30.7748 4.30449 30.5617 3.99889C30.3526 3.6933 29.9987 3.5405 29.5001 3.5405C29.0779 3.5405 28.718 3.73351 28.4205 4.11952C28.1269 4.50554 27.9802 4.96795 27.9802 5.50677V9.02917H26.991V5.36201C26.991 4.14767 26.5226 3.5405 25.5857 3.5405C25.1514 3.5405 24.7935 3.72345 24.5121 4.08936C24.2306 4.45126 24.0899 4.92372 24.0899 5.50677V9.02917H23.1007V2.8529H24.0899V3.83001H24.114C24.5523 3.0821 25.1916 2.70815 26.032 2.70815C26.4542 2.70815 26.8221 2.82677 27.1358 3.06401C27.4494 3.29723 27.6645 3.60483 27.7811 3.98683C28.2395 3.13438 28.9231 2.70815 29.8319 2.70815C31.191 2.70815 31.8705 3.54653 31.8705 5.22329V9.02917Z" fill="black"/>
<path d="M34.2469 1.28471C34.07 1.28471 33.9192 1.2244 33.7946 1.10377C33.6699 0.983136 33.6076 0.830338 33.6076 0.645372C33.6076 0.460405 33.6699 0.307607 33.7946 0.186977C33.9192 0.0623256 34.07 0 34.2469 0C34.4279 0 34.5807 0.0623256 34.7053 0.186977C34.834 0.307607 34.8983 0.460405 34.8983 0.645372C34.8983 0.822296 34.834 0.973084 34.7053 1.09774C34.5807 1.22239 34.4279 1.28471 34.2469 1.28471ZM34.7294 9.02917H33.7403V2.8529H34.7294V9.02917Z" fill="black"/>
<path d="M41.8587 9.02917H40.8695V5.50677C40.8695 4.19592 40.391 3.5405 39.434 3.5405C38.9394 3.5405 38.5293 3.72747 38.2036 4.10143C37.8819 4.47136 37.7211 4.93981 37.7211 5.50677V9.02917H36.7319V2.8529H37.7211V3.87826H37.7452C38.2116 3.09819 38.8872 2.70815 39.7718 2.70815C40.4473 2.70815 40.964 2.92729 41.3219 3.36558C41.6798 3.79985 41.8587 4.42914 41.8587 5.25345V9.02917Z" fill="black"/>
<path d="M49 8.53459C49 10.8024 47.9143 11.9364 45.743 11.9364C44.979 11.9364 44.3115 11.7916 43.7405 11.5021V10.5129C44.4362 10.8989 45.0996 11.0919 45.7309 11.0919C47.2509 11.0919 48.0108 10.2837 48.0108 8.66728V7.99175H47.9867C47.5162 8.77987 46.8085 9.17393 45.8636 9.17393C45.0956 9.17393 44.4764 8.9005 44.0059 8.35364C43.5395 7.80277 43.3063 7.06491 43.3063 6.14008C43.3063 5.0906 43.5576 4.25624 44.0602 3.637C44.5668 3.01777 45.2584 2.70815 46.135 2.70815C46.9674 2.70815 47.5846 3.04189 47.9867 3.70938H48.0108V2.8529H49V8.53459ZM48.0108 6.23658V5.32582C48.0108 4.83526 47.844 4.41507 47.5102 4.06524C47.1805 3.71541 46.7683 3.5405 46.2738 3.5405C45.6626 3.5405 45.1841 3.76366 44.8383 4.20999C44.4924 4.65231 44.3195 5.27355 44.3195 6.07373C44.3195 6.76132 44.4844 7.3122 44.8141 7.72637C45.1479 8.13651 45.5882 8.34158 46.135 8.34158C46.6899 8.34158 47.1403 8.14455 47.4861 7.75049C47.8359 7.35643 48.0108 6.8518 48.0108 6.23658Z" fill="black"/>
</svg>
