<svg width="13" height="15" viewBox="0 0 13 15" fill="none" xmlns="http://www.w3.org/2000/svg">
<path d="M13 4.33333V13.7172C13.0007 13.812 12.9826 13.9061 12.947 13.9939C12.9113 14.0818 12.8586 14.1618 12.792 14.2293C12.7254 14.2969 12.6462 14.3506 12.5588 14.3875C12.4715 14.4244 12.3777 14.4438 12.2828 14.4444H0.717167C0.527087 14.4444 0.344783 14.369 0.210308 14.2346C0.0758344 14.1003 0.000191419 13.9181 0 13.728V0.716444C0 0.328611 0.324278 0 0.723667 0H8.6645L13 4.33333ZM11.5556 5.05556H7.94444V1.44444H1.44444V13H11.5556V5.05556ZM3.61111 3.61111H5.77778V5.05556H3.61111V3.61111ZM3.61111 6.5H9.38889V7.94444H3.61111V6.5ZM3.61111 9.38889H9.38889V10.8333H3.61111V9.38889Z" fill="#09121F" fill-opacity="0.6"/>
</svg>
