<svg width="18" height="18" viewBox="0 0 18 18" fill="none" xmlns="http://www.w3.org/2000/svg">
<g clip-path="url(#clip0_2_705)">
<path d="M11.9993 1.50017V6.00007H16.4992" stroke="white" stroke-width="1.45" stroke-linecap="round" stroke-linejoin="round"/>
<path d="M17.2492 0.75021L11.9993 6.00009" stroke="white" stroke-width="1.45" stroke-linecap="round" stroke-linejoin="round"/>
<path d="M16.5018 12.69V14.9399C16.5026 15.1488 16.4599 15.3556 16.3762 15.5469C16.2925 15.7383 16.1698 15.9101 16.0159 16.0513C15.8619 16.1925 15.6802 16.3 15.4824 16.3669C15.2845 16.4339 15.0749 16.4587 14.8668 16.4399C12.559 16.1891 10.3422 15.4005 8.39447 14.1375C6.58238 12.986 5.04605 11.4496 3.89457 9.63756C2.62708 7.68101 1.8383 5.4534 1.59212 3.1352C1.57338 2.92781 1.59803 2.71878 1.6645 2.52144C1.73097 2.32409 1.8378 2.14274 1.97819 1.98895C2.11858 1.83515 2.28946 1.71227 2.47995 1.62813C2.67043 1.54399 2.87635 1.50044 3.08459 1.50024H5.33454C5.69851 1.49666 6.05137 1.62555 6.32734 1.86288C6.60331 2.10022 6.78357 2.42981 6.83451 2.79021C6.92947 3.51025 7.10559 4.21723 7.3595 4.89766C7.4604 5.1661 7.48224 5.45784 7.42242 5.73831C7.36261 6.01877 7.22365 6.27622 7.022 6.48013L6.06952 7.43261C7.13717 9.31023 8.69181 10.8649 10.5694 11.9325L11.5219 10.98C11.7258 10.7784 11.9833 10.6394 12.2637 10.5796C12.5442 10.5198 12.8359 10.5416 13.1044 10.6425C13.7848 10.8964 14.4918 11.0726 15.2118 11.1675C15.5761 11.2189 15.9089 11.4024 16.1467 11.6831C16.3845 11.9638 16.5109 12.3222 16.5018 12.69Z" stroke="white" stroke-width="1.45" stroke-linecap="round" stroke-linejoin="round"/>
</g>
<defs>
<clipPath id="clip0_2_705">
<rect width="17.4" height="17.4" fill="white" transform="scale(1.03446)"/>
</clipPath>
</defs>
</svg>
