<svg width="15" height="15" viewBox="0 0 15 15" fill="none" xmlns="http://www.w3.org/2000/svg">
<g clip-path="url(#clip0_2_1330)">
<path d="M9.99707 1.25073V5.00073H13.7471" stroke="#C7DA8A" stroke-width="1.25" stroke-linecap="round" stroke-linejoin="round"/>
<path d="M14.3721 0.624268L9.99707 4.99927" stroke="#C7DA8A" stroke-width="1.25" stroke-linecap="round" stroke-linejoin="round"/>
<path d="M13.7504 10.5758V12.4508C13.7511 12.6249 13.7154 12.7971 13.6457 12.9566C13.576 13.1161 13.4737 13.2593 13.3454 13.377C13.2172 13.4946 13.0657 13.5842 12.9009 13.64C12.736 13.6957 12.5612 13.7165 12.3879 13.7008C10.4647 13.4918 8.61726 12.8346 6.99414 11.782C5.48403 10.8225 4.20372 9.54215 3.24414 8.03204C2.18787 6.40155 1.53054 4.54516 1.32539 2.61329C1.30977 2.44046 1.33031 2.26627 1.3857 2.10181C1.44109 1.93735 1.53012 1.78622 1.64711 1.65806C1.76411 1.52989 1.90651 1.42749 2.06525 1.35737C2.224 1.28725 2.3956 1.25096 2.56914 1.25079H4.44414C4.74745 1.24781 5.04151 1.35522 5.27149 1.553C5.50147 1.75078 5.65168 2.02545 5.69414 2.32579C5.77327 2.92583 5.92004 3.515 6.13164 4.08204C6.21573 4.30575 6.23392 4.54886 6.18408 4.78259C6.13423 5.01632 6.01842 5.23086 5.85039 5.40079L5.05664 6.19454C5.94636 7.75926 7.24192 9.05482 8.80664 9.94454L9.60039 9.15079C9.77032 8.98275 9.98486 8.86695 10.2186 8.8171C10.4523 8.76725 10.6954 8.78545 10.9191 8.86954C11.4862 9.08114 12.0753 9.2279 12.6754 9.30704C12.979 9.34987 13.2563 9.5028 13.4545 9.73673C13.6527 9.97066 13.758 10.2693 13.7504 10.5758Z" stroke="#C7DA8A" stroke-width="1.25" stroke-linecap="round" stroke-linejoin="round"/>
</g>
<defs>
<clipPath id="clip0_2_1330">
<rect width="15" height="15" fill="white"/>
</clipPath>
</defs>
</svg>
