<svg width="16" height="16" viewBox="0 0 16 16" fill="none" xmlns="http://www.w3.org/2000/svg">
<path d="M9.64057 3.71356C10.2883 3.83993 10.8835 4.1567 11.3501 4.62332C11.8168 5.08995 12.1335 5.6852 12.2599 6.3329M9.64057 1.06106C10.9862 1.21056 12.2411 1.81316 13.1991 2.76994C14.157 3.72671 14.7612 4.98079 14.9124 6.32627M14.2493 11.618V13.6074C14.25 13.792 14.2122 13.9748 14.1382 14.1441C14.0642 14.3133 13.9557 14.4652 13.8196 14.59C13.6835 14.7149 13.5229 14.8099 13.3479 14.8691C13.173 14.9283 12.9876 14.9502 12.8037 14.9336C10.7631 14.7119 8.80305 14.0146 7.08091 12.8978C5.47869 11.8797 4.12029 10.5213 3.10217 8.91908C1.98148 7.18913 1.28405 5.21951 1.06638 3.1698C1.04981 2.98642 1.0716 2.8016 1.13037 2.62711C1.18914 2.45262 1.2836 2.29228 1.40773 2.15629C1.53187 2.02031 1.68296 1.91166 1.85138 1.83726C2.0198 1.76287 2.20187 1.72436 2.386 1.72419H4.37537C4.69719 1.72102 5.00918 1.83498 5.25319 2.04483C5.4972 2.25468 5.65658 2.54609 5.70162 2.86476C5.78558 3.5014 5.9413 4.1265 6.1658 4.72814C6.25502 4.96549 6.27433 5.22343 6.22144 5.47142C6.16856 5.71941 6.04569 5.94703 5.8674 6.12733L5.02523 6.9695C5.96922 8.62966 7.34381 10.0042 9.00397 10.9482L9.84614 10.1061C10.0264 9.92778 10.2541 9.80491 10.502 9.75203C10.75 9.69914 11.008 9.71845 11.2453 9.80767C11.847 10.0322 12.4721 10.1879 13.1087 10.2719C13.4308 10.3173 13.725 10.4795 13.9353 10.7277C14.1456 10.9759 14.2574 11.2928 14.2493 11.618Z" stroke="white" stroke-width="2" stroke-linecap="round" stroke-linejoin="round"/>
</svg>
