<svg width="17" height="21" viewBox="0 0 17 21" fill="none" xmlns="http://www.w3.org/2000/svg">
<path d="M8.5 0L16.2605 1.72456C16.6921 1.82089 17 2.20339 17 2.64633V12.0785C17 13.9731 16.0527 15.7429 14.4764 16.7932L8.5 20.7778L2.52356 16.7932C0.946333 15.742 0 13.9731 0 12.0794V2.64633C0 2.20339 0.307889 1.82089 0.7395 1.72456L8.5 0ZM8.5 1.93517L1.88889 3.40378V12.0785C1.88889 13.3412 2.51978 14.5208 3.57094 15.2216L8.5 18.5083L13.4291 15.2216C14.4802 14.5208 15.1111 13.3422 15.1111 12.0794V3.40378L8.5 1.93611V1.93517ZM12.7047 6.82078L14.0411 8.15622L8.03061 14.1667L4.02333 10.1594L5.35878 8.82394L8.02967 11.4948L12.7047 6.81983V6.82078Z" fill="#09121F"/>
</svg>
