<svg width="13" height="13" viewBox="0 0 13 13" fill="none" xmlns="http://www.w3.org/2000/svg">
<g clip-path="url(#clip0_707_3357)">
<path d="M11.9173 9.16375V10.7887C11.9179 10.9396 11.887 11.0889 11.8265 11.2271C11.7661 11.3654 11.6775 11.4894 11.5663 11.5914C11.4551 11.6934 11.3239 11.7711 11.181 11.8194C11.0381 11.8677 10.8867 11.8857 10.7364 11.8721C9.06963 11.691 7.46855 11.1214 6.06184 10.2092C4.75308 9.37753 3.64349 8.26793 2.81184 6.95917C1.89642 5.54607 1.32673 3.93721 1.14893 2.26292C1.13539 2.11313 1.15319 1.96216 1.2012 1.81963C1.2492 1.6771 1.32636 1.54612 1.42776 1.43505C1.52916 1.32397 1.65257 1.23522 1.79015 1.17445C1.92772 1.11368 2.07645 1.08223 2.22684 1.08208H3.85184C4.11472 1.0795 4.36957 1.17258 4.56888 1.344C4.7682 1.51541 4.89839 1.75345 4.93518 2.01375C5.00377 2.53379 5.13096 3.04439 5.31434 3.53583C5.38722 3.72971 5.403 3.94041 5.35979 4.14298C5.31659 4.34554 5.21623 4.53148 5.07059 4.67875L4.38268 5.36667C5.15377 6.72275 6.27659 7.84557 7.63268 8.61667L8.32059 7.92875C8.46787 7.78312 8.6538 7.68275 8.85637 7.63955C9.05893 7.59635 9.26964 7.61212 9.46351 7.685C9.95495 7.86838 10.4656 7.99558 10.9856 8.06417C11.2487 8.10129 11.489 8.23382 11.6608 8.43656C11.8326 8.6393 11.9239 8.8981 11.9173 9.16375Z" stroke="black" stroke-width="1.08333" stroke-linecap="round" stroke-linejoin="round"/>
</g>
<defs>
<clipPath id="clip0_707_3357">
<rect width="13" height="13" fill="white"/>
</clipPath>
</defs>
</svg>
