<svg width="16" height="16" viewBox="0 0 16 16" fill="none" xmlns="http://www.w3.org/2000/svg">
<g clip-path="url(#clip0_707_3367)">
<path d="M14.8574 0.644531L10.9824 4.51953" stroke="#BC6D72" stroke-width="1.29167" stroke-linecap="round" stroke-linejoin="round"/>
<path d="M10.9824 0.644531L14.8574 4.51953" stroke="#BC6D72" stroke-width="1.29167" stroke-linecap="round" stroke-linejoin="round"/>
<path d="M14.2077 10.9289V12.8664C14.2084 13.0462 14.1716 13.2243 14.0995 13.3891C14.0275 13.5539 13.9218 13.7018 13.7892 13.8234C13.6567 13.945 13.5002 14.0376 13.3298 14.0952C13.1595 14.1528 12.9789 14.1742 12.7998 14.158C10.8124 13.9421 8.90346 13.263 7.22623 12.1753C5.66579 11.1838 4.3428 9.86077 3.35123 8.30032C2.25976 6.61548 1.58051 4.69722 1.36852 2.70095C1.35238 2.52235 1.37361 2.34236 1.43085 2.17241C1.48808 2.00247 1.58008 1.84631 1.70098 1.71387C1.82187 1.58143 1.96902 1.47561 2.13305 1.40316C2.29709 1.33071 2.47441 1.2932 2.65373 1.29303H4.59123C4.90466 1.28995 5.20851 1.40094 5.44616 1.60531C5.68381 1.80969 5.83903 2.09351 5.8829 2.40386C5.96468 3.02391 6.11633 3.63271 6.33498 4.21866C6.42187 4.44982 6.44068 4.70104 6.38917 4.94256C6.33766 5.18408 6.218 5.40577 6.04436 5.58137L5.22415 6.40157C6.14353 8.01845 7.48227 9.35719 9.09915 10.2766L9.91936 9.45637C10.095 9.28272 10.3166 9.16306 10.5582 9.11155C10.7997 9.06004 11.0509 9.07885 11.2821 9.16574C11.868 9.38439 12.4768 9.53605 13.0969 9.61782C13.4106 9.66208 13.6971 9.8201 13.9019 10.0618C14.1067 10.3036 14.2155 10.6121 14.2077 10.9289Z" stroke="#BC6D72" stroke-width="1.29167" stroke-linecap="round" stroke-linejoin="round"/>
</g>
<defs>
<clipPath id="clip0_707_3367">
<rect width="15.5" height="15.5" fill="white"/>
</clipPath>
</defs>
</svg>
