<svg width="13" height="15" viewBox="0 0 13 15" fill="none" xmlns="http://www.w3.org/2000/svg">
<g clip-path="url(#clip0_707_3359)">
<path d="M8.66602 1.21875V4.875H11.916" stroke="#CADE8E" stroke-width="1.625" stroke-linecap="round" stroke-linejoin="round"/>
<path d="M12.4577 0.609375L8.66602 4.875" stroke="#CADE8E" stroke-width="1.625" stroke-linecap="round" stroke-linejoin="round"/>
<path d="M11.8567 10.3107V12.1388C11.8573 12.3085 11.8264 12.4765 11.766 12.632C11.7056 12.7875 11.6169 12.9271 11.5058 13.0418C11.3946 13.1566 11.2634 13.2439 11.1205 13.2983C10.9775 13.3526 10.8261 13.3728 10.6759 13.3576C9.00908 13.1538 7.40801 12.5131 6.0013 11.4868C4.69254 10.5512 3.58294 9.30288 2.7513 7.83053C1.83587 6.24079 1.26618 4.43082 1.08838 2.54725C1.07484 2.37873 1.09265 2.2089 1.14065 2.04855C1.18866 1.8882 1.26582 1.74085 1.36721 1.61589C1.46861 1.49093 1.59203 1.39109 1.7296 1.32272C1.86718 1.25436 2.0159 1.21897 2.1663 1.21881H3.7913C4.05417 1.2159 4.30902 1.32062 4.50834 1.51346C4.70765 1.7063 4.83784 1.9741 4.87463 2.26693C4.94322 2.85197 5.07042 3.42641 5.2538 3.97928C5.32668 4.19739 5.34245 4.43443 5.29925 4.66231C5.25605 4.8902 5.15568 5.09938 5.01005 5.26506L4.32213 6.03897C5.09322 7.56456 6.21604 8.82774 7.57213 9.69522L8.26005 8.92131C8.40732 8.75747 8.59326 8.64456 8.79582 8.59596C8.99839 8.54736 9.20909 8.5651 9.40297 8.64709C9.8944 8.85339 10.405 8.99649 10.925 9.07365C11.1882 9.11541 11.4285 9.26451 11.6003 9.4926C11.772 9.72068 11.8633 10.0118 11.8567 10.3107Z" stroke="#CADE8E" stroke-width="1.625" stroke-linecap="round" stroke-linejoin="round"/>
</g>
<defs>
<clipPath id="clip0_707_3359">
<rect width="13" height="14.625" fill="white"/>
</clipPath>
</defs>
</svg>
