<svg width="19" height="19" viewBox="0 0 19 19" fill="none" xmlns="http://www.w3.org/2000/svg">
<g clip-path="url(#clip0_707_3398)">
<path d="M12.4004 2.25V6.6H16.7504" stroke="white" stroke-width="1.45" stroke-linecap="round" stroke-linejoin="round"/>
<path d="M17.4754 1.52734L12.4004 6.60234" stroke="white" stroke-width="1.45" stroke-linecap="round" stroke-linejoin="round"/>
<path d="M16.7529 13.0671V15.2421C16.7537 15.444 16.7123 15.6438 16.6314 15.8288C16.5505 16.0139 16.4319 16.1799 16.2831 16.3164C16.1343 16.4529 15.9587 16.5568 15.7674 16.6215C15.5761 16.6862 15.3735 16.7102 15.1724 16.6921C12.9414 16.4497 10.7984 15.6873 8.91562 14.4663C7.16389 13.3532 5.67874 11.868 4.56562 10.1163C3.34035 8.22494 2.57785 6.07154 2.33987 3.83057C2.32175 3.63008 2.34558 3.42802 2.40983 3.23725C2.47409 3.04647 2.57736 2.87117 2.71307 2.7225C2.84879 2.57382 3.01398 2.45503 3.19812 2.3737C3.38226 2.29236 3.58132 2.25026 3.78262 2.25007H5.95762C6.30947 2.24661 6.65057 2.3712 6.91735 2.60063C7.18412 2.83006 7.35838 3.14867 7.40762 3.49707C7.49942 4.19312 7.66967 4.87655 7.91512 5.53432C8.01266 5.79382 8.03377 6.07583 7.97595 6.34696C7.91813 6.61808 7.78379 6.86695 7.58887 7.06407L6.66812 7.98482C7.7002 9.79989 9.20305 11.3027 11.0181 12.3348L11.9389 11.4141C12.136 11.2191 12.3849 11.0848 12.656 11.027C12.9271 10.9692 13.2091 10.9903 13.4686 11.0878C14.1264 11.3333 14.8098 11.5035 15.5059 11.5953C15.8581 11.645 16.1797 11.8224 16.4096 12.0938C16.6395 12.3651 16.7617 12.7115 16.7529 13.0671Z" stroke="white" stroke-width="1.45" stroke-linecap="round" stroke-linejoin="round"/>
</g>
<defs>
<clipPath id="clip0_707_3398">
<rect width="17.4" height="17.4" fill="white" transform="translate(0.800781 0.800781)"/>
</clipPath>
</defs>
</svg>
